<?xml version="1.0" encoding="UTF-8"?>
<svg width="19px" height="20px" viewBox="0 0 19 20" version="1.1" xmlns="http://www.w3.org/2000/svg" xmlns:xlink="http://www.w3.org/1999/xlink">
    <title>Group</title>
    <g id="Symbols" stroke="none" stroke-width="1" fill="none" fill-rule="evenodd" stroke-linecap="round" stroke-linejoin="round">
        <g id="Icon/TopBar/Profile/Deelected" transform="translate(-11.000000, -10.000000)" stroke="#607790" stroke-width="2">
            <g id="Group" transform="translate(12.000000, 11.000000)">
                <path d="M10.5678383,8.16 C14.2583721,9.06404209 16.9911621,12.32694 16.9911621,16.2138077 C16.9911621,16.2138077 12.6753772,17.8036364 8.12164074,17.8036364 C3.56790426,17.8036364 -3.01980663e-13,16.2138077 -3.01980663e-13,16.2138077 C-3.01980663e-13,12.6556623 2.29045569,9.62016969 5.50919676,8.43895646" id="Stroke-3"></path>
                <path d="M12.558685,4.45079749 C12.558685,6.90922695 10.5741729,8.90181818 8.12620795,8.90181818 C5.67824296,8.90181818 3.69373089,6.90922695 3.69373089,4.45079749 C3.69373089,1.99259123 5.67824296,4.52970994e-14 8.12620795,4.52970994e-14 C10.5741729,4.52970994e-14 12.558685,1.99259123 12.558685,4.45079749 Z" id="Stroke-5"></path>
            </g>
        </g>
    </g>
</svg>